<svg width="25" height="23" viewBox="0 0 25 23" fill="none" xmlns="http://www.w3.org/2000/svg">
<path d="M0.165619 0.668762H5.19062L8.17656 13.7422H21.2922L24.3297 3.66407L5.81406 3.40157" stroke="#585966"/>
<path d="M22.2484 16.789H8.1578C7.95467 16.7935 7.75273 16.7568 7.56416 16.6811C7.3756 16.6054 7.20432 16.4924 7.06065 16.3487C6.91697 16.205 6.80389 16.0337 6.72821 15.8452C6.65253 15.6566 6.61582 15.4547 6.6203 15.2515C6.6203 13.7422 8.17655 13.7422 8.17655 13.7422" stroke="#585966"/>
<path d="M9.69531 21.8469C10.6092 21.8469 11.35 21.1061 11.35 20.1922C11.35 19.2783 10.6092 18.5375 9.69531 18.5375C8.78145 18.5375 8.04062 19.2783 8.04062 20.1922C8.04062 21.1061 8.78145 21.8469 9.69531 21.8469Z" stroke="#585966"/>
<path d="M19.5813 21.8469C20.4951 21.8469 21.236 21.1061 21.236 20.1922C21.236 19.2783 20.4951 18.5375 19.5813 18.5375C18.6674 18.5375 17.9266 19.2783 17.9266 20.1922C17.9266 21.1061 18.6674 21.8469 19.5813 21.8469Z" stroke="#585966"/>
</svg>
