<svg width="17" height="14" viewBox="0 0 17 14" fill="none" xmlns="http://www.w3.org/2000/svg">
<path d="M0.525007 1.16667H16.2752C16.565 1.16667 16.8002 0.905917 16.8002 0.583333C16.8002 0.26075 16.565 0 16.2752 0H0.525007C0.235203 0 0 0.26075 0 0.583333C0 0.905917 0.234678 1.16667 0.525007 1.16667Z" fill="white"/>
<path d="M0.525007 14H16.2752C16.565 14 16.8002 13.7392 16.8002 13.4167C16.8002 13.0941 16.565 12.8333 16.2752 12.8333H0.525007C0.235203 12.8333 0 13.0941 0 13.4167C0 13.7392 0.234678 14 0.525007 14Z" fill="white"/>
<path d="M0.525007 7.58331H16.2752C16.565 7.58331 16.8002 7.32256 16.8002 6.99997C16.8002 6.67739 16.565 6.41664 16.2752 6.41664H0.525007C0.235203 6.41664 0 6.67739 0 6.99997C0 7.32256 0.234678 7.58331 0.525007 7.58331Z" fill="white"/>
</svg>
