<svg width="15" height="26" viewBox="0 0 15 26" fill="none" xmlns="http://www.w3.org/2000/svg">
<path d="M0.924372 1.0675C0.572863 1.41911 0.375397 1.89594 0.375397 2.39312C0.375397 2.89031 0.572863 3.36713 0.924372 3.71875L10.2056 13L0.924372 22.2812C0.582825 22.6349 0.393835 23.1085 0.398107 23.6001C0.402379 24.0917 0.599571 24.562 0.947212 24.9097C1.29485 25.2573 1.76512 25.4545 2.25674 25.4588C2.74836 25.463 3.22199 25.274 3.57562 24.9325L14.1825 14.3256C14.534 13.974 14.7315 13.4972 14.7315 13C14.7315 12.5028 14.534 12.026 14.1825 11.6744L3.57562 1.0675C3.22401 0.715991 2.74718 0.518524 2.25 0.518524C1.75281 0.518524 1.27599 0.715991 0.924372 1.0675Z" fill="white"/>
</svg>
