<svg width="16" height="12" viewBox="0 0 16 12" fill="none" xmlns="http://www.w3.org/2000/svg">
<path d="M14.3333 10L9.90473 6.00002M6.09524 6.00002L1.66668 10M1.33333 2.66669L6.7766 6.47695C7.2174 6.78555 7.4378 6.93982 7.67753 6.99955C7.88926 7.05235 8.11073 7.05235 8.32246 6.99955C8.5622 6.93982 8.7826 6.78555 9.2234 6.47695L14.6667 2.66669M4.53333 11.3334H11.4667C12.5868 11.3334 13.1468 11.3334 13.5747 11.1154C13.951 10.9236 14.2569 10.6177 14.4487 10.2414C14.6667 9.81349 14.6667 9.25349 14.6667 8.13335V3.86669C14.6667 2.74658 14.6667 2.18653 14.4487 1.75871C14.2569 1.38238 13.951 1.07642 13.5747 0.884674C13.1468 0.666687 12.5868 0.666687 11.4667 0.666687H4.53333C3.41322 0.666687 2.85317 0.666687 2.42535 0.884674C2.04902 1.07642 1.74306 1.38238 1.55132 1.75871C1.33333 2.18653 1.33333 2.74658 1.33333 3.86669V8.13335C1.33333 9.25349 1.33333 9.81349 1.55132 10.2414C1.74306 10.6177 2.04902 10.9236 2.42535 11.1154C2.85317 11.3334 3.41322 11.3334 4.53333 11.3334Z" stroke="#F5B627" stroke-linecap="round" stroke-linejoin="round"/>
</svg>
