<svg width="14" height="14" viewBox="0 0 14 14" fill="none" xmlns="http://www.w3.org/2000/svg">
<path d="M12.7774 11.5687V9.76223C12.7847 9.4669 12.6831 9.17917 12.4917 8.95377C11.9521 8.31817 10.1014 7.91164 9.3678 8.06777C8.796 8.1895 8.39587 8.76364 8.00473 9.15403C6.4942 8.29677 5.24349 7.04857 4.38457 5.54097C4.77571 5.15063 5.35103 4.75134 5.473 4.18062C5.6292 3.44962 5.22319 1.61076 4.59199 1.069C4.36997 0.878436 4.08609 0.77495 3.79327 0.77783H1.98318C1.2935 0.778476 0.719695 1.39707 0.782488 2.09056C0.777775 8.06777 5.44447 12.7778 11.4621 12.773C12.1593 12.836 12.7802 12.2593 12.7774 11.5687Z" stroke="#F5B627" stroke-linecap="round" stroke-linejoin="round"/>
</svg>
