<svg width="26" height="26" viewBox="0 0 26 26" fill="none" xmlns="http://www.w3.org/2000/svg">
<path d="M3.66669 24.4536C4.3697 24.6667 5.31923 24.6667 6.93333 24.6667H19.0667C20.6807 24.6667 21.6303 24.6667 22.3333 24.4536M3.66669 24.4536C3.51595 24.408 3.37655 24.3526 3.24436 24.2852C2.58579 23.9496 2.05036 23.4143 1.71481 22.7557C1.33333 22.0069 1.33333 21.0269 1.33333 19.0667V6.93334C1.33333 4.97316 1.33333 3.99306 1.71481 3.24438C2.05036 2.58581 2.58579 2.05038 3.24436 1.71482C3.99305 1.33334 4.97314 1.33334 6.93333 1.33334H19.0667C21.0269 1.33334 22.0069 1.33334 22.7557 1.71482C23.4142 2.05038 23.9496 2.58581 24.2852 3.24438C24.6667 3.99306 24.6667 4.97316 24.6667 6.93334V19.0667C24.6667 21.0269 24.6667 22.0069 24.2852 22.7557C23.9496 23.4143 23.4142 23.9496 22.7557 24.2852C22.6235 24.3526 22.4841 24.408 22.3333 24.4536M3.66669 24.4536C3.66707 23.5095 3.67274 23.0099 3.75633 22.5895C4.12457 20.7384 5.57169 19.2913 7.42291 18.9231C7.8737 18.8333 8.4158 18.8333 9.5 18.8333H16.5C17.5842 18.8333 18.1263 18.8333 18.5771 18.9231C20.4283 19.2913 21.8754 20.7384 22.2436 22.5895C22.3273 23.0099 22.3329 23.5095 22.3333 24.4536M17.6667 10.0833C17.6667 12.6606 15.5773 14.75 13 14.75C10.4227 14.75 8.33333 12.6606 8.33333 10.0833C8.33333 7.50601 10.4227 5.41668 13 5.41668C15.5773 5.41668 17.6667 7.50601 17.6667 10.0833Z" stroke="#585966" stroke-linecap="round" stroke-linejoin="round"/>
</svg>
