<svg width="19" height="19" viewBox="0 0 19 19" fill="none" xmlns="http://www.w3.org/2000/svg">
<path d="M9.19794 11.9609L6.68926 9.46086M9.19794 11.9609C10.366 11.5181 11.4866 10.9598 12.5428 10.2942M9.19794 11.9609V16.1275C9.19794 16.1275 11.7317 15.6692 12.5428 14.4609C13.446 13.1109 12.5428 10.2942 12.5428 10.2942M6.68926 9.46086C7.13425 8.31036 7.69457 7.20755 8.36171 6.16916C9.33608 4.61665 10.6928 3.33837 12.3028 2.4559C13.9129 1.57344 15.7228 1.11614 17.5602 1.1275C17.5602 3.39416 16.908 7.3775 12.5428 10.2942M6.68926 9.46086H2.50812C2.50812 9.46086 2.96805 6.93583 4.18058 6.1275C5.53527 5.2275 8.36171 6.1275 8.36171 6.1275M2.92624 13.2109C1.6719 14.2609 1.25378 17.3775 1.25378 17.3775C1.25378 17.3775 4.38127 16.9609 5.43492 15.7109C6.02864 15.0109 6.02028 13.9359 5.35966 13.2859C5.03462 12.9767 4.60646 12.798 4.15736 12.7842C3.70824 12.7704 3.26983 12.9223 2.92624 13.2109Z" stroke="#111111" stroke-width="1.5" stroke-linecap="round" stroke-linejoin="round"/>
</svg>
