<svg width="20" height="19" viewBox="0 0 20 19" fill="none" xmlns="http://www.w3.org/2000/svg">
<path d="M6.97183 6.96102H6.98061M12.2401 11.961H12.2488M13.1181 6.12769L6.09379 12.7944M14.7874 3.62645C14.9682 4.04146 15.3153 4.37135 15.7523 4.54358L17.2846 5.146C17.7219 5.31792 18.0694 5.64768 18.2505 6.06274C18.4316 6.47779 18.4316 6.94414 18.2505 7.3592L17.6162 8.81252C17.435 9.22777 17.4347 9.6946 17.6168 10.1096L18.25 11.5625C18.3397 11.7681 18.386 11.9884 18.386 12.2109C18.3861 12.4335 18.3399 12.6539 18.2501 12.8594C18.1604 13.0651 18.0289 13.2519 17.8631 13.4092C17.6972 13.5665 17.5004 13.6914 17.2838 13.7764L15.7526 14.3784C15.3152 14.55 14.9677 14.8794 14.7862 15.2942L14.1515 16.7485C13.9703 17.1636 13.623 17.4934 13.1856 17.6653C12.7484 17.8372 12.257 17.8372 11.8197 17.6653L10.2884 17.0633C9.85109 16.8918 9.35992 16.8921 8.92292 17.0643L7.39056 17.6659C6.95349 17.8374 6.46258 17.8372 6.02563 17.6654C5.58868 17.4936 5.24144 17.1643 5.06017 16.7497L4.42527 15.2949C4.24447 14.8799 3.89741 14.5499 3.46042 14.3777L1.92808 13.7753C1.49097 13.6034 1.14364 13.2739 0.96243 12.8591C0.781229 12.4443 0.780984 11.9781 0.961745 11.5631L1.596 10.1099C1.7767 9.69477 1.77633 9.2286 1.59499 8.81377L0.961631 7.35834C0.871834 7.15277 0.825597 6.93242 0.825562 6.70988C0.825526 6.48735 0.871685 6.26698 0.961412 6.06138C1.05114 5.85579 1.18267 5.66898 1.34849 5.51165C1.51431 5.35431 1.71117 5.22954 1.92782 5.14444L3.45906 4.54245C3.89595 4.371 4.24331 4.04202 4.4249 3.62774L5.05962 2.17336C5.24076 1.7583 5.5882 1.42855 6.0255 1.25663C6.4628 1.0847 6.95415 1.0847 7.39146 1.25663L8.92265 1.85862C9.36 2.03011 9.85118 2.02976 10.2883 1.85765L11.8212 1.25756C12.2585 1.08574 12.7497 1.08577 13.1869 1.25766C13.6241 1.42955 13.9715 1.75921 14.1527 2.17415L14.7876 3.62896L14.7874 3.62645ZM7.41085 6.96102C7.41085 7.19114 7.21429 7.37769 6.97183 7.37769C6.72937 7.37769 6.53281 7.19114 6.53281 6.96102C6.53281 6.7309 6.72937 6.54435 6.97183 6.54435C7.21429 6.54435 7.41085 6.7309 7.41085 6.96102ZM12.6791 11.961C12.6791 12.1911 12.4825 12.3777 12.2401 12.3777C11.9976 12.3777 11.801 12.1911 11.801 11.961C11.801 11.7309 11.9976 11.5444 12.2401 11.5444C12.4825 11.5444 12.6791 11.7309 12.6791 11.961Z" stroke="#111111" stroke-width="1.5" stroke-linecap="round" stroke-linejoin="round"/>
</svg>
