<svg width="50" height="20" viewBox="0 0 50 20" fill="none" xmlns="http://www.w3.org/2000/svg">
<rect width="50" height="19.2934" fill="#D9D9D9"/>
<path d="M17.7949 16.3287L19.9333 3.77998H23.3536L21.2136 16.3287H17.7949ZM33.5711 4.05049C32.8937 3.79626 31.8317 3.52344 30.5057 3.52344C27.1258 3.52344 24.7453 5.22542 24.7249 7.66472C24.7058 9.46786 26.4245 10.4738 27.7219 11.074C29.0534 11.6893 29.5009 12.0815 29.4945 12.6306C29.486 13.4718 28.4313 13.8559 27.4481 13.8559C26.0792 13.8559 25.3519 13.6657 24.2285 13.1974L23.7876 12.998L23.3077 15.8071C24.1066 16.1575 25.5838 16.4609 27.1178 16.4766C30.7133 16.4766 33.0474 14.7941 33.074 12.1891C33.0867 10.7616 32.1755 9.67536 30.2021 8.77966C29.0066 8.19914 28.2744 7.81177 28.2822 7.22395C28.2822 6.70235 28.9019 6.14459 30.2411 6.14459C31.3595 6.12722 32.1699 6.37113 32.8011 6.62536L33.1076 6.77017L33.5711 4.05049ZM42.3731 3.77978H39.7301C38.9114 3.77978 38.2986 4.00325 37.9391 4.82042L32.8593 16.3204H36.451C36.451 16.3204 37.0381 14.7742 37.171 14.4347C37.5635 14.4347 41.0527 14.44 41.5515 14.44C41.6538 14.8794 41.9676 16.3204 41.9676 16.3204H45.1415L42.3731 3.7794V3.77978ZM38.1797 11.883C38.4626 11.16 39.5425 8.37504 39.5425 8.37504C39.5224 8.40844 39.8233 7.6485 39.996 7.17735L40.2271 8.25927C40.2271 8.25927 40.882 11.2547 41.019 11.8828H38.1797V11.883ZM14.8912 3.77978L11.5426 12.3375L11.1858 10.5984C10.5624 8.59369 8.62012 6.42171 6.44878 5.33434L9.51076 16.3087L13.1297 16.3047L18.5145 3.77966L14.8912 3.77959" fill="#0E4595"/>
<path d="M8.41795 3.7793H2.9025L2.85878 4.04039C7.14974 5.0791 9.98891 7.5893 11.1678 10.6058L9.96846 4.8391C9.76147 4.04449 9.16096 3.80731 8.41808 3.77962" fill="#F2AE14"/>
</svg>
